<svg id="Слой_1" data-name="Слой 1" xmlns="http://www.w3.org/2000/svg" viewBox="0 0 1623.02 342.82"><defs><style>.cls-1{fill:#fff;}.cls-2{fill:#c35224;}</style></defs><title>02</title><path class="cls-1" d="M825.11,251.47H728.87a.57.57,0,0,0-.48.87c7.87,12.65,16.08,25.09,23.69,37.91a.55.55,0,0,0,.48.27h36.66a.56.56,0,0,1,.5.31L806,322.5a.57.57,0,0,0,.51.3h54.87a.57.57,0,0,0,.5-.83l-16.25-31.51-20-38.69A.56.56,0,0,0,825.11,251.47Z" transform="translate(-91.32 -133.19)"/><path class="cls-1" d="M390.35,256.2q-24.83,5-49,10.54a.57.57,0,0,0-.45.57v54.91a.58.58,0,0,0,.58.58h49a.58.58,0,0,0,.59-.58V256.78A.59.59,0,0,0,390.35,256.2Z" transform="translate(-91.32 -133.19)"/><path class="cls-1" d="M288.37,279.59q-42.19,10.88-82.09,23.28a.34.34,0,0,0-.2.49l10.46,19.27a.34.34,0,0,0,.3.17h48.42a.33.33,0,0,0,.3-.17l23.2-42.55A.34.34,0,0,0,288.37,279.59Z" transform="translate(-91.32 -133.19)"/><path class="cls-1" d="M99.21,320.73q20.54-8.09,41.92-15.71a.56.56,0,0,0,.37-.52V186.64a.55.55,0,0,1,1-.26L196.64,286a.55.55,0,0,0,.65.26q50-15.71,103.71-29a.53.53,0,0,0,.35-.27l38.49-70.6a.55.55,0,0,1,1,.27v60.48a.54.54,0,0,0,.66.53q24.24-5.46,49.08-10.44a.56.56,0,0,0,.44-.54V135.11a.56.56,0,0,0-.55-.56H319a.62.62,0,0,0-.52.3L241.55,272.28a.56.56,0,0,1-1,0L166.34,134.84a.55.55,0,0,0-.49-.29h-74a.56.56,0,0,0-.55.56V322.8h2.76C95.8,322.12,97.47,321.42,99.21,320.73Z" transform="translate(-91.32 -133.19)"/><path class="cls-1" d="M708,214.12q-28.85,2-57.27,4.6a.74.74,0,0,0-.58.39L597.25,321.74a.73.73,0,0,0,.65,1.06h54.24a.71.71,0,0,0,.64-.39l56-107.22A.73.73,0,0,0,708,214.12Z" transform="translate(-91.32 -133.19)"/><path class="cls-1" d="M770.07,251.47h54.57a.5.5,0,0,0,.45-.73l-21.32-41.33a.5.5,0,0,0-.47-.27q-26.73,1-53.2,2.4a.5.5,0,0,0-.42.72l19.94,38.93A.51.51,0,0,0,770.07,251.47Z" transform="translate(-91.32 -133.19)"/><path class="cls-1" d="M719.56,194.47l20.32-1.34a.6.6,0,0,0,.58.33q26.25-1.5,52.77-2.55a.62.62,0,0,0,.53-.9l-28.44-55.12a.61.61,0,0,0-.55-.34H694.19a.61.61,0,0,0-.55.34L661,198.23a.62.62,0,0,0,.6.9q28.55-2.46,57.49-4.33A.63.63,0,0,0,719.56,194.47Z" transform="translate(-91.32 -133.19)"/><path class="cls-1" d="M1117.54,194.68V176.42a.64.64,0,0,1,.64-.64h93.22c14.1,0,15.73,3.53,15.73,20.62a54.86,54.86,0,0,1-.47,8,.6.6,0,0,0,.56.68q21.26,2.32,42.21,5a.67.67,0,0,0,.61-.24c4.61-5.77,7.27-13.4,7.27-23.48,0-43.94-22-51.81-59.4-51.81H1068a.64.64,0,0,0-.64.65v56.6a.64.64,0,0,0,.61.64q24.55,1.25,48.89,2.88A.64.64,0,0,0,1117.54,194.68Z" transform="translate(-91.32 -133.19)"/><path class="cls-1" d="M1190.77,234.35c37,13.62,36.36,26.88,36.36,41L1227,322h50l.31-56.16c0-19.74-10.32-36.76-28.44-39.61l-1.43-.17c-.86-.09-1.71-.2-2.59-.24,0,0-67.33-7.24-98.32-9.7a.56.56,0,0,0-.6.55Z" transform="translate(-91.32 -133.19)"/><path class="cls-1" d="M1067.8,322.8h49.29a.45.45,0,0,0,.45-.44v-108a.46.46,0,0,0-.42-.45q-24.51-1.68-49.29-2.92a.44.44,0,0,0-.47.44v110.9A.44.44,0,0,0,1067.8,322.8Z" transform="translate(-91.32 -133.19)"/><path class="cls-1" d="M1573,324.82h59.68a249.89,249.89,0,0,0,25-1.15,1655,1655,0,0,0-163.23-48.76.48.48,0,0,0-.58.52C1498.45,323.86,1529.05,324.82,1573,324.82Z" transform="translate(-91.32 -133.19)"/><path class="cls-1" d="M1567,246.85l70.8,1.36c20.34.27,26.31,1.35,26.31,17.63,0,15.73-7.86,17.36-31.46,17.36h-36.81q48.87,15,94,32.23a.75.75,0,0,0,.59,0c24.4-11.38,23.83-32,23.83-52.83,0-43.13-13.83-53.43-69.44-54.24L1564.33,207c-13.29-.27-20.62-1.63-20.62-16.55,0-10.58,2.17-16.27,29.3-16.27h59.68c19.81,0,28,0,28.2,18.78a.74.74,0,0,0,.72.74h47.57v-7.86c0-52.08-35.26-52.63-76.49-52.63H1573c-49.1,0-79.48,3.53-79.48,57.51C1493.53,244.41,1520.66,246,1567,246.85Z" transform="translate(-91.32 -133.19)"/><path class="cls-2" d="M665.44,438.3a22,22,0,0,0-3.78-7,19.2,19.2,0,0,0-6.19-5.12,27.39,27.39,0,0,0-8.62-3,21.4,21.4,0,0,0,9.7-9.16,26.18,26.18,0,0,0,3.5-12.39,25.16,25.16,0,0,0-1.89-10,27.2,27.2,0,0,0-5.66-8.08,28.84,28.84,0,0,0-8.89-5.39,35.16,35.16,0,0,0-12.39-1.89H597.55v51.73h7.54v-.54H638a23.59,23.59,0,0,1,15.89,5.66,17.63,17.63,0,0,1,4,5.92,20.56,20.56,0,0,1,1.35,7.28,25,25,0,0,1-1.35,7.81,16.43,16.43,0,0,1-4,6.47,20,20,0,0,1-6.73,4.58,26.3,26.3,0,0,1-9.7,1.61H605.09V447.19h-7.54v26.67h41a31.22,31.22,0,0,0,11.31-2.16,27.28,27.28,0,0,0,14.82-14.82,30.89,30.89,0,0,0,2.15-11A28.14,28.14,0,0,0,665.44,438.3Zm-34.22-17.25H605.36V383.61H632a24.12,24.12,0,0,1,9.16,1.61,19.2,19.2,0,0,1,6.47,4,23.44,23.44,0,0,1,4,5.93,20.77,20.77,0,0,1,1.34,7.27,22,22,0,0,1-1.34,7.28,14.63,14.63,0,0,1-4,5.92,23.69,23.69,0,0,1-6.74,4A37,37,0,0,1,631.22,421.05Z" transform="translate(-91.32 -133.19)"/><path class="cls-2" d="M1045.84,476c-11.59,0-20.75-2.42-27.21-7.54-6.74-5.12-10.78-12.66-11.86-23.17h7.55c1.07,7.81,4,13.74,9.69,17.78,5.39,4,12.94,6.2,22.1,5.93q13.73,0,21-5.66c4.85-3.77,7-8.89,7-15.36a15.73,15.73,0,0,0-2.42-8.89,17,17,0,0,0-6.74-5.38,42.7,42.7,0,0,0-9.43-3.24c-3.5-.81-7.27-1.61-11-2.15-4-.81-8.08-1.62-12.12-2.7a36.83,36.83,0,0,1-10.51-4.31,20.21,20.21,0,0,1-7.54-7.54c-1.89-3-3-7-3-12.12a26,26,0,0,1,2.16-10.51,23.78,23.78,0,0,1,6.46-8.08,36.91,36.91,0,0,1,10.24-5.39,41.07,41.07,0,0,1,13.2-1.89,45.12,45.12,0,0,1,14,1.89,31.53,31.53,0,0,1,10.78,5.66,29.24,29.24,0,0,1,7.27,8.89,27.22,27.22,0,0,1,3,11.58h-7.54a20.43,20.43,0,0,0-2.42-7.81,21.38,21.38,0,0,0-5.39-6.74,24,24,0,0,0-8.62-4.58,41.23,41.23,0,0,0-12.13-1.88c-7.81,0-14,1.88-18.32,5.39a16.85,16.85,0,0,0-6.46,13.74,14.26,14.26,0,0,0,2.42,8.62,21.51,21.51,0,0,0,6.47,5.38,40.45,40.45,0,0,0,9.16,3.24c3.5.81,7,1.34,10.77,2.15,4.31.81,8.36,1.62,12.4,2.7a44.4,44.4,0,0,1,11,4.31,26.84,26.84,0,0,1,8.08,7.54c2.16,3.23,3,7.27,3,12.39A29.52,29.52,0,0,1,1078.7,459a22.86,22.86,0,0,1-6.46,8.89,31,31,0,0,1-11,5.93A50.4,50.4,0,0,1,1045.84,476Z" transform="translate(-91.32 -133.19)"/><path class="cls-2" d="M1045.84,476c-11.59,0-20.75-2.42-27.21-7.54-6.74-5.12-10.78-12.66-11.86-23.17h7.55c1.07,7.81,4,13.74,9.69,17.78,5.39,4,12.94,6.2,22.1,5.93q13.73,0,21-5.66c4.85-3.77,7-8.89,7-15.36a15.73,15.73,0,0,0-2.42-8.89,17,17,0,0,0-6.74-5.38,42.7,42.7,0,0,0-9.43-3.24c-3.5-.81-7.27-1.61-11-2.15-4-.81-8.08-1.62-12.12-2.7a36.83,36.83,0,0,1-10.51-4.31,20.21,20.21,0,0,1-7.54-7.54c-1.89-3-3-7-3-12.12a26,26,0,0,1,2.16-10.51,23.78,23.78,0,0,1,6.46-8.08,36.91,36.91,0,0,1,10.24-5.39,41.07,41.07,0,0,1,13.2-1.89,45.12,45.12,0,0,1,14,1.89,31.53,31.53,0,0,1,10.78,5.66,29.24,29.24,0,0,1,7.27,8.89,27.22,27.22,0,0,1,3,11.58h-7.54a20.43,20.43,0,0,0-2.42-7.81,21.38,21.38,0,0,0-5.39-6.74,24,24,0,0,0-8.62-4.58,41.23,41.23,0,0,0-12.13-1.88c-7.81,0-14,1.88-18.32,5.39a16.85,16.85,0,0,0-6.46,13.74,14.26,14.26,0,0,0,2.42,8.62,21.51,21.51,0,0,0,6.47,5.38,40.45,40.45,0,0,0,9.16,3.24c3.5.81,7,1.34,10.77,2.15,4.31.81,8.36,1.62,12.4,2.7a44.4,44.4,0,0,1,11,4.31,26.84,26.84,0,0,1,8.08,7.54c2.16,3.23,3,7.27,3,12.39A29.52,29.52,0,0,1,1078.7,459a22.86,22.86,0,0,1-6.46,8.89,31,31,0,0,1-11,5.93A50.4,50.4,0,0,1,1045.84,476Z" transform="translate(-91.32 -133.19)"/><polygon class="cls-2" points="1136.63 278.43 1136.63 250.41 1187.82 250.41 1187.82 243.41 1129.09 243.41 1129.09 278.43 1136.63 278.43"/><path class="cls-2" d="M1279.68,467.39H1228V428.6h47.42v-6.2h-55.23v52h59.27A58.55,58.55,0,0,0,1279.68,467.39Z" transform="translate(-91.32 -133.19)"/><polygon class="cls-2" points="770.78 298.37 748.96 243.41 741.42 243.41 702.09 342.55 709.9 342.55 745.19 253.38 762.7 298.37 770.78 298.37"/><polygon class="cls-2" points="775.36 309.68 767.28 309.68 780.21 342.55 788.29 342.55 775.36 309.68"/><path class="cls-2" d="M845.4,442.88c.54,1.88,1.08,3.77,1.62,5.38h19.66v-5.38Z" transform="translate(-91.32 -133.19)"/></svg>