<svg width="1623.02" height="485.82" xmlns="http://www.w3.org/2000/svg" data-name="Слой 1">
 <title>02</title>
 <defs>
  <filter id="svg_22_blur">
   <feGaussianBlur in="SourceGraphic" stdDeviation="0.1"/>
  </filter>

  <style>
  text{
      font-family: Epilogue;
      src: url('./fonts/Epilogue-VariableFont_wght.ttf');
  }
 </style>
 </defs>
 
 <g>
  <title>Layer 1</title>
  <path id="svg_1" fill="#fff" d="m733.79,118.28l-96.24,0a0.57,0.57 0 0 0 -0.48,0.87c7.87,12.65 16.08,25.09 23.69,37.91a0.55,0.55 0 0 0 0.48,0.27l36.66,0a0.56,0.56 0 0 1 0.5,0.31l16.28,31.67a0.57,0.57 0 0 0 0.51,0.3l54.87,0a0.57,0.57 0 0 0 0.5,-0.83l-16.25,-31.51l-20,-38.69a0.56,0.56 0 0 0 -0.52,-0.3z" class="cls-1"/>
  <path id="svg_2" fill="#fff" d="m299.03,123.01q-24.83,5 -49,10.54a0.57,0.57 0 0 0 -0.45,0.57l0,54.91a0.58,0.58 0 0 0 0.58,0.58l49,0a0.58,0.58 0 0 0 0.59,-0.58l0,-65.44a0.59,0.59 0 0 0 -0.72,-0.58z" class="cls-1"/>
  <path id="svg_3" fill="#fff" d="m197.05,146.4q-42.19,10.88 -82.09,23.28a0.34,0.34 0 0 0 -0.2,0.49l10.46,19.27a0.34,0.34 0 0 0 0.3,0.17l48.42,0a0.33,0.33 0 0 0 0.3,-0.17l23.2,-42.55a0.34,0.34 0 0 0 -0.39,-0.49z" class="cls-1"/>
  <path id="svg_4" fill="#fff" d="m7.89,187.54q20.54,-8.09 41.92,-15.71a0.56,0.56 0 0 0 0.37,-0.52l0,-117.86a0.55,0.55 0 0 1 1,-0.26l54.14,99.62a0.55,0.55 0 0 0 0.65,0.26q50,-15.71 103.71,-29a0.53,0.53 0 0 0 0.35,-0.27l38.49,-70.6a0.55,0.55 0 0 1 1,0.27l0,60.48a0.54,0.54 0 0 0 0.66,0.53q24.24,-5.46 49.08,-10.44a0.56,0.56 0 0 0 0.44,-0.54l0,-101.58a0.56,0.56 0 0 0 -0.55,-0.56l-71.47,0a0.62,0.62 0 0 0 -0.52,0.3l-76.93,137.43a0.56,0.56 0 0 1 -1,0l-74.21,-137.44a0.55,0.55 0 0 0 -0.49,-0.29l-74,0a0.56,0.56 0 0 0 -0.55,0.56l0,187.69l2.76,0c1.74,-0.68 3.41,-1.38 5.15,-2.07z" class="cls-1"/>
  <path id="svg_5" fill="#fff" d="m616.68,80.93q-28.85,2 -57.27,4.6a0.74,0.74 0 0 0 -0.58,0.39l-52.9,102.63a0.73,0.73 0 0 0 0.65,1.06l54.24,0a0.71,0.71 0 0 0 0.64,-0.39l56,-107.22a0.73,0.73 0 0 0 -0.78,-1.07z" class="cls-1"/>
  <path id="svg_6" fill="#fff" d="m678.75,118.28l54.57,0a0.5,0.5 0 0 0 0.45,-0.73l-21.32,-41.33a0.5,0.5 0 0 0 -0.47,-0.27q-26.73,1 -53.2,2.4a0.5,0.5 0 0 0 -0.42,0.72l19.94,38.93a0.51,0.51 0 0 0 0.45,0.28z" class="cls-1"/>
  <path id="svg_7" fill="#fff" d="m628.24,61.28l20.32,-1.34a0.6,0.6 0 0 0 0.58,0.33q26.25,-1.5 52.77,-2.55a0.62,0.62 0 0 0 0.53,-0.9l-28.44,-55.12a0.61,0.61 0 0 0 -0.55,-0.34l-70.58,0a0.61,0.61 0 0 0 -0.55,0.34l-32.64,63.34a0.62,0.62 0 0 0 0.6,0.9q28.55,-2.46 57.49,-4.33a0.63,0.63 0 0 0 0.47,-0.33z" class="cls-1"/>
  <path id="svg_8" fill="#fff" d="m1026.22,61.49l0,-18.26a0.64,0.64 0 0 1 0.64,-0.64l93.22,0c14.1,0 15.73,3.53 15.73,20.62a54.86,54.86 0 0 1 -0.47,8a0.6,0.6 0 0 0 0.56,0.68q21.26,2.32 42.21,5a0.67,0.67 0 0 0 0.61,-0.24c4.61,-5.77 7.27,-13.4 7.27,-23.48c0,-43.94 -22,-51.81 -59.4,-51.81l-149.91,0a0.64,0.64 0 0 0 -0.64,0.65l0,56.6a0.64,0.64 0 0 0 0.61,0.64q24.55,1.25 48.89,2.88a0.64,0.64 0 0 0 0.68,-0.64z" class="cls-1"/>
  <path id="svg_9" fill="#fff" d="m1099.45,101.16c37,13.62 36.36,26.88 36.36,41l-0.13,46.65l50,0l0.31,-56.16c0,-19.74 -10.32,-36.76 -28.44,-39.61l-1.43,-0.17c-0.86,-0.09 -1.71,-0.2 -2.59,-0.24c0,0 -67.33,-7.24 -98.32,-9.7a0.56,0.56 0 0 0 -0.6,0.55l44.84,17.68z" class="cls-1"/>
  <path id="svg_10" fill="#fff" d="m976.48,189.61l49.29,0a0.45,0.45 0 0 0 0.45,-0.44l0,-108a0.46,0.46 0 0 0 -0.42,-0.45q-24.51,-1.68 -49.29,-2.92a0.44,0.44 0 0 0 -0.47,0.44l0,110.9a0.44,0.44 0 0 0 0.44,0.47z" class="cls-1"/>
  <path id="svg_11" fill="#fff" d="m1481.68,191.63l59.68,0a249.89,249.89 0 0 0 25,-1.15a1655,1655 0 0 0 -163.23,-48.76a0.48,0.48 0 0 0 -0.58,0.52c4.58,48.43 35.18,49.39 79.13,49.39z" class="cls-1"/>
  <path id="svg_12" fill="#fff" d="m1475.68,113.66l70.8,1.36c20.34,0.27 26.31,1.35 26.31,17.63c0,15.73 -7.86,17.36 -31.46,17.36l-36.81,0q48.87,15 94,32.23a0.75,0.75 0 0 0 0.59,0c24.4,-11.38 23.83,-32 23.83,-52.83c0,-43.13 -13.83,-53.43 -69.44,-54.24l-80.49,-1.36c-13.29,-0.27 -20.62,-1.63 -20.62,-16.55c0,-10.58 2.17,-16.27 29.3,-16.27l59.68,0c19.81,0 28,0 28.2,18.78a0.74,0.74 0 0 0 0.72,0.74l47.57,0l0,-7.86c0,-52.08 -35.26,-52.63 -76.49,-52.63l-59.69,0c-49.1,0 -79.48,3.53 -79.48,57.51c0.01,53.69 27.14,55.28 73.48,56.13z" class="cls-1"/>
  <path id="svg_13" fill="#c35224" d="m574.12,305.11a22,22 0 0 0 -3.78,-7a19.2,19.2 0 0 0 -6.19,-5.12a27.39,27.39 0 0 0 -8.62,-3a21.4,21.4 0 0 0 9.7,-9.16a26.18,26.18 0 0 0 3.5,-12.39a25.16,25.16 0 0 0 -1.89,-10a27.2,27.2 0 0 0 -5.66,-8.08a28.84,28.84 0 0 0 -8.89,-5.39a35.16,35.16 0 0 0 -12.39,-1.89l-33.67,0l0,51.73l7.54,0l0,-0.54l32.91,0a23.59,23.59 0 0 1 15.89,5.66a17.63,17.63 0 0 1 4,5.92a20.56,20.56 0 0 1 1.35,7.28a25,25 0 0 1 -1.35,7.81a16.43,16.43 0 0 1 -4,6.47a20,20 0 0 1 -6.73,4.58a26.3,26.3 0 0 1 -9.7,1.61l-32.37,0l0,-19.6l-7.54,0l0,26.67l41,0a31.22,31.22 0 0 0 11.31,-2.16a27.28,27.28 0 0 0 14.82,-14.82a30.89,30.89 0 0 0 2.15,-11a28.14,28.14 0 0 0 -1.39,-7.58zm-34.22,-17.25l-25.86,0l0,-37.44l26.64,0a24.12,24.12 0 0 1 9.16,1.61a19.2,19.2 0 0 1 6.47,4a23.44,23.44 0 0 1 4,5.93a20.77,20.77 0 0 1 1.34,7.27a22,22 0 0 1 -1.34,7.28a14.63,14.63 0 0 1 -4,5.92a23.69,23.69 0 0 1 -6.74,4a37,37 0 0 1 -9.67,1.43z" class="cls-2"/>
  <path id="svg_14" fill="#c35224" d="m954.52,342.81c-11.59,0 -20.75,-2.42 -27.21,-7.54c-6.74,-5.12 -10.78,-12.66 -11.86,-23.17l7.55,0c1.07,7.81 4,13.74 9.69,17.78c5.39,4 12.94,6.2 22.1,5.93q13.73,0 21,-5.66c4.85,-3.77 7,-8.89 7,-15.36a15.73,15.73 0 0 0 -2.42,-8.89a17,17 0 0 0 -6.74,-5.38a42.7,42.7 0 0 0 -9.43,-3.24c-3.5,-0.81 -7.27,-1.61 -11,-2.15c-4,-0.81 -8.08,-1.62 -12.12,-2.7a36.83,36.83 0 0 1 -10.51,-4.31a20.21,20.21 0 0 1 -7.54,-7.54c-1.89,-3 -3,-7 -3,-12.12a26,26 0 0 1 2.16,-10.51a23.78,23.78 0 0 1 6.46,-8.08a36.91,36.91 0 0 1 10.24,-5.39a41.07,41.07 0 0 1 13.2,-1.89a45.12,45.12 0 0 1 14,1.89a31.53,31.53 0 0 1 10.78,5.66a29.24,29.24 0 0 1 7.27,8.89a27.22,27.22 0 0 1 3,11.58l-7.54,0a20.43,20.43 0 0 0 -2.42,-7.81a21.38,21.38 0 0 0 -5.39,-6.74a24,24 0 0 0 -8.62,-4.58a41.23,41.23 0 0 0 -12.13,-1.88c-7.81,0 -14,1.88 -18.32,5.39a16.85,16.85 0 0 0 -6.46,13.74a14.26,14.26 0 0 0 2.42,8.62a21.51,21.51 0 0 0 6.47,5.38a40.45,40.45 0 0 0 9.16,3.24c3.5,0.81 7,1.34 10.77,2.15c4.31,0.81 8.36,1.62 12.4,2.7a44.4,44.4 0 0 1 11,4.31a26.84,26.84 0 0 1 8.08,7.54c2.16,3.23 3,7.27 3,12.39a29.52,29.52 0 0 1 -2.18,10.75a22.86,22.86 0 0 1 -6.46,8.89a31,31 0 0 1 -11,5.93a50.4,50.4 0 0 1 -15.4,2.18z" class="cls-2"/>
  <path id="svg_15" fill="#c35224" d="m954.52,342.81c-11.59,0 -20.75,-2.42 -27.21,-7.54c-6.74,-5.12 -10.78,-12.66 -11.86,-23.17l7.55,0c1.07,7.81 4,13.74 9.69,17.78c5.39,4 12.94,6.2 22.1,5.93q13.73,0 21,-5.66c4.85,-3.77 7,-8.89 7,-15.36a15.73,15.73 0 0 0 -2.42,-8.89a17,17 0 0 0 -6.74,-5.38a42.7,42.7 0 0 0 -9.43,-3.24c-3.5,-0.81 -7.27,-1.61 -11,-2.15c-4,-0.81 -8.08,-1.62 -12.12,-2.7a36.83,36.83 0 0 1 -10.51,-4.31a20.21,20.21 0 0 1 -7.54,-7.54c-1.89,-3 -3,-7 -3,-12.12a26,26 0 0 1 2.16,-10.51a23.78,23.78 0 0 1 6.46,-8.08a36.91,36.91 0 0 1 10.24,-5.39a41.07,41.07 0 0 1 13.2,-1.89a45.12,45.12 0 0 1 14,1.89a31.53,31.53 0 0 1 10.78,5.66a29.24,29.24 0 0 1 7.27,8.89a27.22,27.22 0 0 1 3,11.58l-7.54,0a20.43,20.43 0 0 0 -2.42,-7.81a21.38,21.38 0 0 0 -5.39,-6.74a24,24 0 0 0 -8.62,-4.58a41.23,41.23 0 0 0 -12.13,-1.88c-7.81,0 -14,1.88 -18.32,5.39a16.85,16.85 0 0 0 -6.46,13.74a14.26,14.26 0 0 0 2.42,8.62a21.51,21.51 0 0 0 6.47,5.38a40.45,40.45 0 0 0 9.16,3.24c3.5,0.81 7,1.34 10.77,2.15c4.31,0.81 8.36,1.62 12.4,2.7a44.4,44.4 0 0 1 11,4.31a26.84,26.84 0 0 1 8.08,7.54c2.16,3.23 3,7.27 3,12.39a29.52,29.52 0 0 1 -2.18,10.75a22.86,22.86 0 0 1 -6.46,8.89a31,31 0 0 1 -11,5.93a50.4,50.4 0 0 1 -15.4,2.18z" class="cls-2"/>
  <polygon id="svg_16" fill="#c35224" points="1136.63 278.43 1136.63 250.41 1187.82 250.41 1187.82 243.41 1129.09 243.41 1129.09 278.43 1136.63 278.43" class="cls-2"/>
  <path id="svg_17" fill="#c35224" d="m1188.36,334.2l-51.68,0l0,-38.79l47.42,0l0,-6.2l-55.23,0l0,52l59.27,0a58.55,58.55 0 0 0 0.22,-7.01z" class="cls-2"/>
  <polygon id="svg_18" fill="#c35224" points="770.78 298.37 748.96 243.41 741.42 243.41 702.09 342.55 709.9 342.55 745.19 253.38 762.7 298.37 770.78 298.37" class="cls-2"/>
  <polygon id="svg_19" fill="#c35224" points="775.36 309.68 767.28 309.68 780.21 342.55 788.29 342.55 775.36 309.68" class="cls-2"/>
  <path id="svg_20" fill="#c35224" d="m754.08,309.69c0.54,1.88 1.08,3.77 1.62,5.38l19.66,0l0,-5.38l-21.28,0z" class="cls-2"/>
  <text fill="#000000" x="490.48965" y="444.30419" id="svg_22" stroke-width="0" font-size="24" font-family="Noto Sans JP" text-anchor="start" xml:space="preserve" filter="url(#svg_22_blur)"/>
  <text fill="#000000" x="771.11697" y="428.92817" id="svg_23" stroke-width="0" font-size="24" font-family="Noto Sans JP" text-anchor="start" xml:space="preserve"/>
  <text transform="matrix(1.60376, 0, 0, 1.50801, -368.087, -192.126)" xml:space="preserve" text-anchor="start" font-family="'Epilogue'" font-size="74" id="svg_24" y="445.60579" x="541.07441" stroke-width="0" stroke="#000" fill="#ffffff">CALCULATOR</text>
 </g>
</svg>